<svg xmlns="http://www.w3.org/2000/svg" viewBox="0 200 250 250" xml:space="preserve"><path fill="#2C7DF7" d="m86.54 297.021 40.08 40.159 11.2-11.12-40.24-40.24-3.2 2.399-2.8 2.721-2.64 2.96zM64.3 377.1l23.44-23.439-2.4-3.36-2-3.439-1.76-3.601-1.44-3.84-1.12-3.92-.8-3.92-.399-4-.08-4.08.24-4 .64-4 .88-4 1.28-3.84 1.6-3.68 1.84-3.601 2.16-3.439L63.9 274.38l-3.6 4.56-3.6 5.52-3.12 5.76-2.72 6.16-2.08 6.16-1.601 6.4-1.12 6.56-.56 6.561v6.64l.56 6.56 1.04 6.561 1.601 6.399 2.16 6.24 2.64 6 3.2 5.84 3.52 5.521zm90.4-90.4 22.399-22.4-5.279-4.08-5.521-3.6-5.84-3.12-5.92-2.64-6.4-2.16-6.319-1.601-6.48-1.04-6.64-.56h-6.561l-6.64.56-6.48 1.04-6.399 1.601-6.24 2.16-6.08 2.72-5.84 3.12-5.52 3.6-3.841 3.04 22.4 22.4 3.44-2.32 3.6-1.92 3.68-1.6 3.92-1.36 4-.96 4-.64 4-.24h4.16l4.08.479 4 .801 4 1.039 3.76 1.44 3.681 1.76 3.52 2.08 3.44 2.4h-.08zm-90.4-12.64 4.88-5.279-.16.16-4.479 4.8-.24.399zm6.08-6.4 4.16-3.76-.64.56z"/><path d="m123.82 405.5 6.8-.16 6.8-.72 6.64-1.28 6.561-1.84 6.32-2.4 6.079-2.96 5.921-3.439 5.52-3.92 5.12-4.32 4.8-4.8 4.4-5.2 3.92-5.6 3.439-5.841 2.96-6.079 2.4-6.4 1.84-6.56 1.28-6.641.72-6.72.16-6.8-.4-6.721-1.039-6.72-1.601-6.64-2.08-6.4-2.64-6.24-3.2-6-3.68-5.68-4.08-5.36-4.561-5.04-5.04-4.64L126.7 314.86l2.72 2.8 28.32-28.24 2.8 2.8 2.641 2.96-28.32 28 2.479 2.48 27.84-27.76 2 3.359 1.761 3.44 1.439 3.52 1.2 3.681.8 3.84.561 3.84.319 3.84-.079 3.92-.4 3.84-.72 3.761-.96 3.76-1.36 3.6-1.6 3.521-1.841 3.439-2.159 3.2-26.4-26.4-11.04 11.12 26.32 26.32-3.28 2.08-3.36 1.84-3.52 1.521-3.601 1.199-3.68 1.04-3.76.641-3.84.319h-3.84l-3.84-.241-3.76-.561-3.76-.8-3.6-1.2-3.521-1.439-3.439-1.761-3.28-2 27.36-27.359-2.56-2.561L95.9 361.9l-2.88-2.4-2.641-2.72 28-27.92-2.8-2.801-51.2 51.12 4.721 5.04 4.96 4.561 5.359 4.08 5.601 3.68 6.08 3.2 6.239 2.64 6.4 2.16 6.64 1.6 6.721.96zM86.54 297.021l2.4-3.2 2.64-2.88 2.8-2.721 3.2-2.399-22.48-22.4-5.84 5.2-5.359 5.84 22.56 22.561z"/></svg>